# xmcd CD database file
#
# Track frame offsets:
#	150
#	26159
#	53193
#	70393
#	89719
#	102343
#	119778
#	131013
#	163524
#	193050
#	238551
#	268074
#
# Disc length: 3898 seconds
#
# Revision: 1
# Processed by: cddbd v1.5.2PL0 Copyright (c) Steve Scherf et al.
# Submitted via: CDex 1.51
#
DISCID=b80f380c
DTITLE=Gaetano Donizetti - Oeuvres pour piano seul  (Pietro Spada, piano)  [CD 1-2]
DYEAR=1900
DGENRE=Classique
TTITLE0=Allegro in Fa minor
TTITLE1=La Rricordanza
TTITLE2=Allegro vivace in Sol maggiore
TTITLE3=Allegro in Do maggiore
TTITLE4=Larghetto in La minore ''Una furtiva lagrina''
TTITLE5=Presto in Fa minore
TTITLE6=Larghetto in Do maggiore
TTITLE7=Allegro in Do maggiore
TTITLE8=Adagio e Allegro in Sol maggiore
TTITLE9=Due motivi del celebre Maestro Fäer messi in suonata
TTITLE10=Sinfonia in Do maggiore
TTITLE11=Sinfonia in La maggiore
EXTD=
EXTT0=
EXTT1=
EXTT2=
EXTT3=
EXTT4=
EXTT5=
EXTT6=
EXTT7=
EXTT8=
EXTT9=
EXTT10=
EXTT11=
PLAYORDER=
